<svg width="389" height="60" viewBox="0 0 389 60" fill="none" xmlns="http://www.w3.org/2000/svg">
<circle cx="28.9903" cy="51.0231" r="8.02639" transform="rotate(-90 28.9903 51.0231)" fill="url(#paint0_linear_38_20)"/>
<circle cx="28.9903" cy="21.2114" r="8.02639" transform="rotate(-90 28.9903 21.2114)" fill="url(#paint1_linear_38_20)"/>
<circle cx="72.9756" cy="51.0231" r="8.02639" transform="rotate(-90 72.9756 51.0231)" fill="url(#paint2_linear_38_20)"/>
<circle cx="72.9756" cy="21.2114" r="8.02639" transform="rotate(-90 72.9756 21.2114)" fill="url(#paint3_linear_38_20)"/>
<circle cx="116.964" cy="51.0231" r="8.02639" transform="rotate(-90 116.964 51.0231)" fill="url(#paint4_linear_38_20)"/>
<circle cx="116.964" cy="21.2114" r="8.02639" transform="rotate(-90 116.964 21.2114)" fill="url(#paint5_linear_38_20)"/>
<circle cx="160.951" cy="51.0231" r="8.02639" transform="rotate(-90 160.951 51.0231)" fill="url(#paint6_linear_38_20)"/>
<circle cx="160.951" cy="21.2114" r="8.02639" transform="rotate(-90 160.951 21.2114)" fill="url(#paint7_linear_38_20)"/>
<circle cx="204.939" cy="51.0231" r="8.02639" transform="rotate(-90 204.939 51.0231)" fill="url(#paint8_linear_38_20)"/>
<circle cx="204.939" cy="21.2114" r="8.02639" transform="rotate(-90 204.939 21.2114)" fill="url(#paint9_linear_38_20)"/>
<circle cx="248.927" cy="51.0231" r="8.02639" transform="rotate(-90 248.927 51.0231)" fill="url(#paint10_linear_38_20)"/>
<circle cx="248.927" cy="21.2114" r="8.02639" transform="rotate(-90 248.927 21.2114)" fill="url(#paint11_linear_38_20)"/>
<circle cx="292.915" cy="51.0231" r="8.02639" transform="rotate(-90 292.915 51.0231)" fill="url(#paint12_linear_38_20)"/>
<circle cx="292.915" cy="21.2114" r="8.02639" transform="rotate(-90 292.915 21.2114)" fill="url(#paint13_linear_38_20)"/>
<circle cx="336.902" cy="51.0231" r="8.02639" transform="rotate(-90 336.902 51.0231)" fill="url(#paint14_linear_38_20)"/>
<circle cx="336.902" cy="21.2114" r="8.02639" transform="rotate(-90 336.902 21.2114)" fill="url(#paint15_linear_38_20)"/>
<circle cx="380.891" cy="51.0231" r="8.02639" transform="rotate(-90 380.891 51.0231)" fill="url(#paint16_linear_38_20)"/>
<circle cx="380.891" cy="21.2114" r="8.02639" transform="rotate(-90 380.891 21.2114)" fill="url(#paint17_linear_38_20)"/>
<defs>
<linearGradient id="paint0_linear_38_20" x1="37.0166" y1="51.0231" x2="20.9639" y2="51.0231" gradientUnits="userSpaceOnUse">
<stop stop-color="#0083A0"/>
<stop offset="1" stop-color="#003C49"/>
</linearGradient>
<linearGradient id="paint1_linear_38_20" x1="37.0166" y1="21.2114" x2="20.9639" y2="21.2114" gradientUnits="userSpaceOnUse">
<stop stop-color="#0083A0"/>
<stop offset="1" stop-color="#003C49"/>
</linearGradient>
<linearGradient id="paint2_linear_38_20" x1="81.002" y1="51.0231" x2="64.9492" y2="51.0231" gradientUnits="userSpaceOnUse">
<stop stop-color="#0083A0"/>
<stop offset="1" stop-color="#003C49"/>
</linearGradient>
<linearGradient id="paint3_linear_38_20" x1="81.002" y1="21.2114" x2="64.9492" y2="21.2114" gradientUnits="userSpaceOnUse">
<stop stop-color="#0083A0"/>
<stop offset="1" stop-color="#003C49"/>
</linearGradient>
<linearGradient id="paint4_linear_38_20" x1="124.99" y1="51.023" x2="108.937" y2="51.023" gradientUnits="userSpaceOnUse">
<stop stop-color="#0083A0"/>
<stop offset="1" stop-color="#003C49"/>
</linearGradient>
<linearGradient id="paint5_linear_38_20" x1="124.99" y1="21.2114" x2="108.937" y2="21.2114" gradientUnits="userSpaceOnUse">
<stop stop-color="#0083A0"/>
<stop offset="1" stop-color="#003C49"/>
</linearGradient>
<linearGradient id="paint6_linear_38_20" x1="168.978" y1="51.0231" x2="152.925" y2="51.0231" gradientUnits="userSpaceOnUse">
<stop stop-color="#0083A0"/>
<stop offset="1" stop-color="#003C49"/>
</linearGradient>
<linearGradient id="paint7_linear_38_20" x1="168.978" y1="21.2114" x2="152.925" y2="21.2114" gradientUnits="userSpaceOnUse">
<stop stop-color="#0083A0"/>
<stop offset="1" stop-color="#003C49"/>
</linearGradient>
<linearGradient id="paint8_linear_38_20" x1="212.966" y1="51.023" x2="196.913" y2="51.023" gradientUnits="userSpaceOnUse">
<stop stop-color="#0083A0"/>
<stop offset="1" stop-color="#003C49"/>
</linearGradient>
<linearGradient id="paint9_linear_38_20" x1="212.966" y1="21.2114" x2="196.913" y2="21.2114" gradientUnits="userSpaceOnUse">
<stop stop-color="#0083A0"/>
<stop offset="1" stop-color="#003C49"/>
</linearGradient>
<linearGradient id="paint10_linear_38_20" x1="256.953" y1="51.0231" x2="240.9" y2="51.0231" gradientUnits="userSpaceOnUse">
<stop stop-color="#0083A0"/>
<stop offset="1" stop-color="#003C49"/>
</linearGradient>
<linearGradient id="paint11_linear_38_20" x1="256.953" y1="21.2114" x2="240.9" y2="21.2114" gradientUnits="userSpaceOnUse">
<stop stop-color="#0083A0"/>
<stop offset="1" stop-color="#003C49"/>
</linearGradient>
<linearGradient id="paint12_linear_38_20" x1="300.941" y1="51.023" x2="284.889" y2="51.023" gradientUnits="userSpaceOnUse">
<stop stop-color="#0083A0"/>
<stop offset="1" stop-color="#003C49"/>
</linearGradient>
<linearGradient id="paint13_linear_38_20" x1="300.941" y1="21.2114" x2="284.889" y2="21.2114" gradientUnits="userSpaceOnUse">
<stop stop-color="#0083A0"/>
<stop offset="1" stop-color="#003C49"/>
</linearGradient>
<linearGradient id="paint14_linear_38_20" x1="344.929" y1="51.0231" x2="328.876" y2="51.0231" gradientUnits="userSpaceOnUse">
<stop stop-color="#0083A0"/>
<stop offset="1" stop-color="#003C49"/>
</linearGradient>
<linearGradient id="paint15_linear_38_20" x1="344.929" y1="21.2114" x2="328.876" y2="21.2114" gradientUnits="userSpaceOnUse">
<stop stop-color="#0083A0"/>
<stop offset="1" stop-color="#003C49"/>
</linearGradient>
<linearGradient id="paint16_linear_38_20" x1="388.917" y1="51.023" x2="372.864" y2="51.023" gradientUnits="userSpaceOnUse">
<stop stop-color="#0083A0"/>
<stop offset="1" stop-color="#003C49"/>
</linearGradient>
<linearGradient id="paint17_linear_38_20" x1="388.917" y1="21.2114" x2="372.864" y2="21.2114" gradientUnits="userSpaceOnUse">
<stop stop-color="#0083A0"/>
<stop offset="1" stop-color="#003C49"/>
</linearGradient>
</defs>
</svg>
