<svg width="34" height="37" viewBox="0 0 34 37" fill="none" xmlns="http://www.w3.org/2000/svg">
<path d="M15.7924 0.181454C15.5753 0.303034 15.2887 0.563562 15.1411 0.763302L14.8805 1.13673L14.8545 10.8718C14.8371 17.6282 14.8545 20.7111 14.9239 20.9369C15.2279 21.979 16.5479 22.5001 17.5292 21.9617C17.7377 21.8401 18.0329 21.5709 18.1806 21.3711L18.4411 20.989V11.0716V1.14541L18.2066 0.806723C17.8245 0.268297 17.425 0.0425053 16.7563 0.00776863C16.2787 -0.0182858 16.1137 0.0164528 15.7924 0.181454Z" fill="#E9FBFF"/>
<path d="M8.66254 5.74811C7.82885 6.06075 5.97909 7.44155 4.79803 8.63998C1.57616 11.8966 -0.169383 16.369 0.0129866 20.9196C0.151935 24.3846 1.24616 27.5196 3.29565 30.2986C4.02513 31.2973 5.92699 33.1644 6.90831 33.8592C11.042 36.7684 16.0529 37.7063 20.8813 36.4644C25.0498 35.3876 28.7059 32.6347 30.9812 28.8744C33.1349 25.2965 33.847 20.8675 32.9351 16.7598C31.9538 12.3482 29.3051 8.59656 25.4927 6.20838C24.6503 5.68732 24.1987 5.56574 23.6343 5.71338C23.0785 5.86101 22.7137 6.15627 22.4619 6.66865C22.1492 7.28523 22.1492 7.71945 22.4619 8.32735C22.6703 8.75288 22.8006 8.87446 23.7385 9.49104C24.5027 10.0034 25.0585 10.4637 25.8227 11.2279C27.3511 12.765 28.3325 14.3282 28.949 16.2301C29.4701 17.8627 29.5569 18.4272 29.5569 20.3551C29.5569 22.2743 29.4267 23.1167 28.8882 24.6451C27.5943 28.3446 24.4766 31.4015 20.7424 32.6434C17.5205 33.7202 13.9252 33.4597 10.8944 31.9399C7.3599 30.1597 4.92829 27.0767 4.00776 23.1775C3.74723 22.0485 3.64302 19.7906 3.79934 18.653C4.34645 14.8319 6.36989 11.6274 9.60044 9.48236C10.521 8.87446 10.6512 8.75288 10.8683 8.33603C11.0073 8.04077 11.1028 7.72813 11.1028 7.51102C11.1028 7.1376 10.851 6.48628 10.5991 6.21707C10.1997 5.76548 9.2357 5.53969 8.66254 5.74811Z" fill="#E9FBFF"/>
</svg>
