<svg width="35" height="35" viewBox="0 0 35 35" fill="none" xmlns="http://www.w3.org/2000/svg">
<g clip-path="url(#clip0_6_30)">
<path d="M13.2617 0.0751953C10.8213 0.328125 8.38769 1.28516 6.28906 2.83008C5.50976 3.39746 4.08105 4.8125 3.50683 5.57813C1.70214 7.96387 0.738277 10.6709 0.635738 13.6377C0.574214 15.4082 0.792964 16.9258 1.33984 18.5801C2.02343 20.6377 3.19921 22.5313 4.75781 24.0898C7.04101 26.373 9.92578 27.7744 13.1455 28.1709C14.0137 28.2734 16.2285 28.2188 17.0557 28.0684C18.9766 27.7197 20.6855 27.0635 22.2373 26.0928L22.832 25.71L27.0293 30.0713C29.333 32.4639 31.3154 34.5078 31.4316 34.6035C32.1699 35.2187 33.4414 35.0479 34.0019 34.2617C34.2891 33.8652 34.3711 33.6055 34.3779 33.1406C34.3916 32.4023 34.3437 32.3408 29.9072 27.7402C27.6924 25.4434 25.8057 23.4746 25.7236 23.3721L25.5664 23.1875L25.9355 22.7227C28.4102 19.5439 29.374 15.3672 28.5674 11.2793C28.1641 9.23535 27.1045 6.99316 25.751 5.31153C22.7295 1.55176 18.0332 -0.410156 13.2617 0.0751953ZM16.0644 3.78711C20.501 4.38184 24.0146 7.62891 24.9512 12.0039C25.1426 12.8721 25.2109 14.6152 25.0879 15.4424C24.7529 17.8213 23.748 19.8516 22.1074 21.4922C20.5283 23.0781 18.5664 24.0762 16.3379 24.4453C15.5928 24.5684 13.9521 24.5684 13.1523 24.4453C10.2676 24.0078 7.65625 22.333 6.0498 19.8926C5.47558 19.0244 5.16796 18.3887 4.85351 17.4385C4.50488 16.4062 4.36816 15.6338 4.32714 14.4717C4.10156 8.64062 8.80468 3.7461 14.6631 3.69824C15.0391 3.69824 15.668 3.73926 16.0644 3.78711Z" fill="#0083A0"/>
</g>
<defs>
<clipPath id="clip0_6_30">
<rect width="35" height="35" fill="white"/>
</clipPath>
</defs>
</svg>
