<svg width="37" height="37" viewBox="0 0 37 37" fill="none" xmlns="http://www.w3.org/2000/svg">
<g clip-path="url(#clip0_45_491)">
<path d="M-25.6667 -317.8C-32.3334 -316.067 -40.6 -311.267 -45.8 -306.067C-54.4667 -297.533 -56.6 -290.467 -60.6 -258.867C-62.4667 -243.133 -64.7334 -229.667 -65.4 -228.733C-66.0667 -227.8 -68.7334 -226.467 -71.4 -225.667C-74.0667 -224.733 -82.4667 -221.4 -90.0667 -218.067L-103.8 -211.933L-108.733 -215.933C-131.8 -234.2 -149.267 -247.133 -154.333 -249.667C-162.467 -253.8 -175.533 -254.733 -185.8 -251.667C-193.4 -249.533 -194.733 -248.333 -224.6 -218.6C-254.333 -188.733 -255.533 -187.4 -257.667 -179.8C-260.733 -169.4 -259.8 -156.467 -255.667 -148.333C-253.933 -145 -245.533 -133.4 -237 -122.333C-215.8 -95.2667 -217.267 -98.3333 -221.933 -89C-224.2 -84.6 -227.667 -76.4667 -229.667 -71C-231.667 -65.5334 -234.067 -60.3333 -234.867 -59.5334C-235.667 -58.7334 -249.267 -56.4667 -265 -54.4667C-296.733 -50.4667 -303.533 -48.3333 -312.067 -39.8C-314.867 -37.1334 -318.6 -31.8 -320.733 -27.9333L-324.333 -21V21.6667V64.3333L-320.867 71.8C-318.867 75.9333 -315.133 81.5333 -312.333 84.3333C-303.533 93.1333 -296.333 95.4 -266.067 99.1333C-251.267 100.867 -237.8 102.867 -236.333 103.533C-234.733 104.2 -232.6 107.533 -231.133 111.8C-229.8 115.8 -226.2 124.2 -223.267 130.6C-219.667 138.733 -218.333 142.867 -219.267 143.933C-219.933 144.867 -227.8 155 -236.6 166.333C-245.4 177.667 -253.933 189.667 -255.667 193C-259.8 201.133 -260.733 214.067 -257.667 224.467C-255.533 232.067 -254.333 233.4 -224.6 263.267C-194.733 293 -193.4 294.2 -185.8 296.333C-175.533 299.4 -162.467 298.467 -154.333 294.333C-149.267 291.8 -131.8 278.867 -108.733 260.6L-103.8 256.6L-90.0667 262.733C-82.4667 266.067 -74.0667 269.4 -71.4 270.333C-68.7334 271.133 -66.0667 272.467 -65.4 273.4C-64.7334 274.333 -62.4667 287.8 -60.6 303.533C-56.6 335.267 -54.4667 342.2 -45.6667 351C-42.8667 353.8 -37.2667 357.533 -33.1334 359.533L-25.6667 363H16.3333H58.3333L65.8 359.533C69.9333 357.533 75.5333 353.8 78.3333 351C87.2667 342.067 89.4 335 93.2667 303.4C95.1333 287.8 97.4 274.333 98.2 273.533C99 272.733 104.2 270.333 109.667 268.333C115.133 266.333 123.267 262.867 127.667 260.6C137 255.933 133.933 254.467 161 275.667C172.067 284.2 183.667 292.6 187 294.333C195.133 298.467 208.067 299.4 218.467 296.333C226.067 294.2 227.4 293 257.267 263.267C287 233.4 288.2 232.067 290.333 224.467C293.4 214.067 292.467 201.133 288.333 193C285.933 188.333 273.4 171.4 251.933 144.067C251.133 142.867 252.6 138.067 256.733 128.733C260.067 121.133 263.4 112.733 264.333 110.067C265.133 107.4 266.467 104.733 267.4 104.067C268.333 103.4 281.8 101.133 297.533 99.2667C329.267 95.2667 336.2 93.1333 345 84.3333C347.8 81.5333 351.533 75.9333 353.533 71.8L357 64.3333V22.3333V-19.6667L353.533 -27.1334C351.533 -31.2667 347.8 -36.8667 345 -39.6667C336.2 -48.4667 329.133 -50.6 297.133 -54.8667C281.267 -56.8667 267.8 -59.1334 267.133 -59.8C266.467 -60.4667 264.333 -65.5334 262.333 -71C260.333 -76.4667 256.867 -84.6 254.6 -89C249.933 -98.3333 248.467 -95.2667 269.667 -122.333C278.2 -133.4 286.6 -145 288.333 -148.333C292.467 -156.467 293.4 -169.4 290.333 -179.8C288.2 -187.4 287 -188.733 257.267 -218.6C227.4 -248.333 226.067 -249.533 218.467 -251.667C208.067 -254.733 195.133 -253.8 187 -249.667C183.667 -247.933 172.067 -239.533 161 -231C133.933 -209.8 137 -211.267 127.667 -215.933C123.267 -218.2 115.133 -221.667 109.667 -223.667C104.2 -225.667 99 -228.067 98.2 -228.867C97.4 -229.667 95.1333 -243.133 93.2667 -258.867C89.2667 -290.6 87.1333 -297.4 78.3333 -306.333C75.5333 -309.133 69.9333 -312.867 65.8 -314.867L58.3333 -318.333L18.3333 -318.6C-3.66669 -318.733 -23.4 -318.333 -25.6667 -317.8ZM53.5333 -289.267C60.7333 -285.667 61.6667 -282.733 66.3333 -246.333C69.6667 -219.933 71.2666 -211.267 73.1333 -208.733C75 -206.333 80.3333 -203.8 91.8 -199.667C100.6 -196.6 114.333 -190.867 122.333 -187C135 -180.867 137.267 -180.2 140.867 -181.267C143.133 -181.933 157.267 -192.067 172.333 -203.8C209 -232.333 203.133 -232.867 237.267 -198.6C271.533 -164.467 271.133 -170.6 242.067 -133.133C230.2 -117.8 220.067 -103.4 219.533 -101.4C219 -98.3333 220.333 -94.3333 225.667 -83.2667C229.533 -75.5334 235 -62.6 237.933 -54.6C244.2 -37 244.867 -35.5334 248.6 -33.5334C250.2 -32.6 266.867 -29.9333 285.533 -27.5334C321.4 -23 324.333 -22.0667 327.933 -14.8667C330.333 -10.3333 330.333 55 327.933 59.5333C324.333 66.7333 321.4 67.6667 285.4 72.2C266.733 74.7333 250.2 77.4 248.6 78.2C244.867 80.2 244.067 81.6667 237.8 99.4C235 107.533 229.4 120.467 225.667 128.333C219.4 141 218.733 143 219.933 146.867C220.6 149.133 230.733 163.267 242.467 178.333C271 215 271.533 209.133 237.267 243.267C203.133 277.533 209.267 277.133 171.8 248.067C156.467 236.2 142.067 226.067 140.067 225.533C137 225 133 226.333 121.933 231.667C114.2 235.533 101.133 241 93 243.933C85 246.867 77 250.067 75.4 251.133C71.2666 253.8 70.2 258.733 65.8 294.2C61.6667 327.133 60.7333 330.333 53.5333 333.933C49 336.333 -16.3333 336.333 -20.8667 333.933C-28.0667 330.2 -29 327.4 -33.5334 291.133C-37 264.333 -38.4667 256.067 -40.4667 253.4C-42.3334 251 -47.5334 248.467 -59 244.333C-67.9333 241.267 -81.5334 235.533 -89.4 231.8C-100.6 226.333 -104.467 225 -107.533 225.667C-109.667 226.067 -123 235.533 -137.133 246.467C-151.4 257.533 -164.733 267.533 -166.733 268.6C-174.6 272.6 -177.133 270.867 -205 243C-238.733 209.133 -238.333 215.133 -209.4 177.8C-197.533 162.467 -187.4 148.2 -187 146.2C-186.333 143.4 -187.8 139 -193 128.333C-196.733 120.467 -202.333 107.4 -205.133 99.2667C-208.067 91 -211.4 83 -212.467 81.4C-215.133 77.2667 -220.067 76.2 -255.533 71.8C-288.467 67.6667 -291.667 66.7333 -295.267 59.5333C-297.667 55 -297.667 -10.3333 -295.267 -14.8667C-291.667 -22.0667 -288.467 -23 -255.533 -27.1334C-220.067 -31.5334 -215.133 -32.6 -212.467 -36.7334C-211.4 -38.3333 -208.2 -46.3333 -205.267 -54.3333C-202.333 -62.4667 -196.867 -75.5334 -193 -83.4C-186.733 -96.2 -186.067 -98.3333 -187.267 -102.067C-187.933 -104.467 -198.067 -118.6 -209.8 -133.667C-238.333 -170.333 -238.867 -164.467 -204.6 -198.6C-170.467 -232.867 -176.333 -232.333 -139.667 -203.8C-124.6 -192.067 -110.467 -181.933 -108.2 -181.267C-104.467 -180.067 -102.2 -180.733 -88.7334 -187.4C-80.4667 -191.4 -67.4 -196.867 -59.6667 -199.667C-51.9333 -202.333 -44.3334 -205.4 -42.7334 -206.333C-38.6 -209.133 -37.5334 -214.067 -33.1334 -249.533C-29 -282.467 -28.0667 -285.667 -20.8667 -289.267C-18.6 -290.467 -8.06668 -291 16.3333 -291C40.7333 -291 51.2666 -290.467 53.5333 -289.267Z" fill="black"/>
<path d="M0.0666122 -119C-49.1334 -112.867 -91.0001 -82.3334 -112.333 -37.2667C-137.933 17 -125.933 81.9333 -82.6001 123.933C-39.8 165.267 23 176.2 75.6666 151.133C107.4 136.2 130.2 113.4 145 81.9333C179.533 8.86665 145.267 -77.9334 69.2666 -109.533C49.6666 -117.667 20.7333 -121.667 0.0666122 -119ZM39 -89.1334C68.4666 -82.8667 93.9333 -65.5334 110.867 -40.3334C123.8 -21 129.667 -1.13335 129.667 22.8667C129.533 61.4 111.4 95 78.8666 116.867C66.4666 125.267 49.9333 131.933 35.5333 134.467C30.3333 135.4 19.9333 135.8 10.4666 135.4C-9.00005 134.6 -24.7334 129.933 -41.6667 119.933C-54.3334 112.467 -71.5334 95.9333 -79.4001 83.6666C-85.9334 73.6666 -92.4667 57.5333 -95.1334 45C-97.5334 33.8 -97.5334 10.8667 -95.1334 -0.333359C-85.6667 -44.7334 -51.4001 -79.2667 -7.00005 -89C3.66661 -91.4 28.2 -91.4 39 -89.1334Z" fill="black"/>
<g clip-path="url(#clip1_45_491)">
<path d="M16.2236 0.0650368C15.8623 0.158985 15.4143 0.41914 15.1324 0.700977C14.6627 1.16348 14.5471 1.54648 14.3303 3.25918C14.2291 4.11191 14.1062 4.8418 14.0701 4.89238C14.034 4.94297 13.8895 5.01523 13.7449 5.05859C13.6004 5.10918 13.1451 5.28984 12.7332 5.47051L11.9889 5.80293L11.7215 5.58613C10.4713 4.59609 9.52461 3.89511 9.25 3.75781C8.80918 3.53379 8.10098 3.4832 7.54453 3.64941C7.13262 3.76504 7.06035 3.83008 5.4416 5.4416C3.83008 7.06035 3.76504 7.13262 3.64941 7.54453C3.4832 8.1082 3.53379 8.80918 3.75781 9.25C3.85176 9.43066 4.30703 10.0594 4.76953 10.6592C5.91855 12.1262 5.83906 11.96 5.58613 12.4658C5.46328 12.7043 5.27539 13.1451 5.16699 13.4414C5.05859 13.7377 4.92852 14.0195 4.88516 14.0629C4.8418 14.1062 4.10469 14.2291 3.25195 14.3375C1.53203 14.5543 1.16348 14.6699 0.700977 15.1324C0.549219 15.277 0.346875 15.566 0.23125 15.7756L0.0361328 16.1514V18.4639V20.7764L0.224023 21.1811C0.332422 21.4051 0.534766 21.7086 0.686523 21.8604C1.16348 22.3373 1.55371 22.4602 3.19414 22.6625C3.99629 22.7564 4.72617 22.8648 4.80566 22.901C4.89238 22.9371 5.00801 23.1178 5.0875 23.349C5.15977 23.5658 5.35488 24.0211 5.51387 24.368C5.70898 24.8088 5.78125 25.0328 5.73066 25.0906C5.69453 25.1412 5.26816 25.6904 4.79121 26.3047C4.31426 26.9189 3.85176 27.5693 3.75781 27.75C3.53379 28.1908 3.4832 28.8918 3.64941 29.4555C3.76504 29.8674 3.83008 29.9396 5.4416 31.5584C7.06035 33.1699 7.13262 33.235 7.54453 33.3506C8.10098 33.5168 8.80918 33.4662 9.25 33.2422C9.52461 33.1049 10.4713 32.4039 11.7215 31.4139L11.9889 31.1971L12.7332 31.5295C13.1451 31.7102 13.6004 31.8908 13.7449 31.9414C13.8895 31.9848 14.034 32.057 14.0701 32.1076C14.1062 32.1582 14.2291 32.8881 14.3303 33.7408C14.5471 35.4607 14.6627 35.8365 15.1396 36.3135C15.2914 36.4652 15.5949 36.6676 15.8189 36.776L16.2236 36.9639H18.5H20.7764L21.1811 36.776C21.4051 36.6676 21.7086 36.4652 21.8604 36.3135C22.3445 35.8293 22.4602 35.4463 22.6697 33.7336C22.7709 32.8881 22.8938 32.1582 22.9371 32.1148C22.9805 32.0715 23.2623 31.9414 23.5586 31.833C23.8549 31.7246 24.2957 31.5367 24.5342 31.4139C25.04 31.1609 24.8738 31.0814 26.3408 32.2305C26.9406 32.693 27.5693 33.1482 27.75 33.2422C28.1908 33.4662 28.8918 33.5168 29.4555 33.3506C29.8674 33.235 29.9396 33.1699 31.5584 31.5584C33.1699 29.9396 33.235 29.8674 33.3506 29.4555C33.5168 28.8918 33.4662 28.1908 33.2422 27.75C33.1121 27.4971 32.4328 26.5793 31.2693 25.0979C31.226 25.0328 31.3055 24.7727 31.5295 24.2668C31.7102 23.8549 31.8908 23.3996 31.9414 23.2551C31.9848 23.1105 32.057 22.966 32.1076 22.9299C32.1582 22.8938 32.8881 22.7709 33.7408 22.6697C35.4607 22.4529 35.8365 22.3373 36.3135 21.8604C36.4652 21.7086 36.6676 21.4051 36.776 21.1811L36.9639 20.7764V18.5V16.2236L36.776 15.8189C36.6676 15.5949 36.4652 15.2914 36.3135 15.1396C35.8365 14.6627 35.4535 14.5471 33.7191 14.3158C32.8592 14.2074 32.1293 14.0846 32.0932 14.0484C32.057 14.0123 31.9414 13.7377 31.833 13.4414C31.7246 13.1451 31.5367 12.7043 31.4139 12.4658C31.1609 11.96 31.0814 12.1262 32.2305 10.6592C32.693 10.0594 33.1482 9.43066 33.2422 9.25C33.4662 8.80918 33.5168 8.1082 33.3506 7.54453C33.235 7.13262 33.1699 7.06035 31.5584 5.4416C29.9396 3.83008 29.8674 3.76504 29.4555 3.64941C28.8918 3.4832 28.1908 3.53379 27.75 3.75781C27.5693 3.85176 26.9406 4.30703 26.3408 4.76953C24.8738 5.91855 25.04 5.83906 24.5342 5.58613C24.2957 5.46328 23.8549 5.27539 23.5586 5.16699C23.2623 5.05859 22.9805 4.92852 22.9371 4.88515C22.8938 4.8418 22.7709 4.11191 22.6697 3.25918C22.4529 1.53926 22.3373 1.1707 21.8604 0.686523C21.7086 0.534763 21.4051 0.33242 21.1811 0.224022L20.7764 0.0361328L18.6084 0.0216789C17.416 0.0144539 16.3465 0.0361328 16.2236 0.0650368ZM20.5162 1.61152C20.9064 1.80664 20.957 1.96563 21.21 3.93848C21.3906 5.36934 21.4773 5.83906 21.5785 5.97637C21.6797 6.10645 21.9688 6.24375 22.5902 6.46777C23.0672 6.63398 23.8115 6.94473 24.2451 7.1543C24.9316 7.48672 25.0545 7.52285 25.2496 7.46504C25.3725 7.42891 26.1385 6.87969 26.9551 6.24375C28.9424 4.69727 28.6244 4.66836 30.4744 6.52559C32.3316 8.37559 32.31 8.04316 30.7346 10.0738C30.0914 10.9049 29.5422 11.6854 29.5133 11.7937C29.4844 11.96 29.5566 12.1768 29.8457 12.7766C30.0553 13.1957 30.3516 13.8967 30.5105 14.3303C30.8502 15.2842 30.8863 15.3637 31.0887 15.4721C31.1754 15.5227 32.0787 15.6672 33.0904 15.7973C35.0344 16.043 35.1934 16.0936 35.3885 16.4838C35.5186 16.7295 35.5186 20.2705 35.3885 20.5162C35.1934 20.9064 35.0344 20.957 33.0832 21.2027C32.0715 21.34 31.1754 21.4846 31.0887 21.5279C30.8863 21.6363 30.843 21.7158 30.5033 22.677C30.3516 23.1178 30.048 23.8187 29.8457 24.2451C29.5061 24.9316 29.4699 25.04 29.535 25.2496C29.5711 25.3725 30.1203 26.1385 30.7563 26.9551C32.3027 28.9424 32.3316 28.6244 30.4744 30.4744C28.6244 32.3316 28.9568 32.31 26.9262 30.7346C26.0951 30.0914 25.3146 29.5422 25.2063 29.5133C25.04 29.4844 24.8232 29.5566 24.2234 29.8457C23.8043 30.0553 23.0961 30.3516 22.6553 30.5105C22.2217 30.6695 21.7881 30.843 21.7014 30.9008C21.4773 31.0453 21.4195 31.3127 21.1811 33.235C20.957 35.0199 20.9064 35.1934 20.5162 35.3885C20.2705 35.5186 16.7295 35.5186 16.4838 35.3885C16.0936 35.1861 16.043 35.0344 15.7973 33.0687C15.6094 31.6162 15.5299 31.1682 15.4215 31.0236C15.3203 30.8936 15.0385 30.7562 14.417 30.5322C13.9328 30.366 13.1957 30.0553 12.7693 29.8529C12.1623 29.5566 11.9527 29.4844 11.7865 29.5205C11.6709 29.5422 10.9482 30.0553 10.1822 30.6479C9.40898 31.2477 8.68633 31.7896 8.57793 31.8475C8.15156 32.0643 8.01426 31.9703 6.50391 30.46C4.67559 28.6244 4.69727 28.9496 6.26543 26.9262C6.90859 26.0951 7.45781 25.3219 7.47949 25.2135C7.51562 25.0617 7.43613 24.8232 7.1543 24.2451C6.95195 23.8187 6.64844 23.1105 6.49668 22.6697C6.3377 22.2217 6.15703 21.7881 6.09922 21.7014C5.95469 21.4773 5.6873 21.4195 3.76504 21.1811C1.98008 20.957 1.80664 20.9064 1.61152 20.5162C1.48145 20.2705 1.48145 16.7295 1.61152 16.4838C1.80664 16.0936 1.98008 16.043 3.76504 15.8189C5.6873 15.5805 5.95469 15.5227 6.09922 15.2986C6.15703 15.2119 6.33047 14.7783 6.48945 14.3447C6.64844 13.9039 6.94473 13.1957 7.1543 12.7693C7.49395 12.0756 7.53008 11.96 7.46504 11.7576C7.42891 11.6275 6.87969 10.8615 6.24375 10.0449C4.69727 8.05762 4.66836 8.37559 6.52559 6.52559C8.37559 4.66836 8.05762 4.69727 10.0449 6.24375C10.8615 6.87969 11.6275 7.42891 11.7504 7.46504C11.9527 7.53008 12.0756 7.49394 12.8055 7.13262C13.2535 6.91582 13.9617 6.61953 14.3809 6.46777C14.8 6.32324 15.2119 6.15703 15.2986 6.10645C15.5227 5.95469 15.5805 5.6873 15.8189 3.76504C16.043 1.98008 16.0936 1.80664 16.4838 1.61152C16.6066 1.54648 17.1775 1.51758 18.5 1.51758C19.8225 1.51758 20.3934 1.54648 20.5162 1.61152Z" fill="#E9FBFF"/>
<path d="M17.6183 10.8398C14.9517 11.1723 12.6826 12.8271 11.5263 15.2697C10.1388 18.2109 10.7892 21.7303 13.1379 24.0066C15.4576 26.2469 18.8613 26.8395 21.7158 25.4809C23.4357 24.6715 24.6715 23.4357 25.4736 21.7303C27.3453 17.7701 25.4881 13.0656 21.3689 11.3529C20.3066 10.9121 18.7385 10.6953 17.6183 10.8398ZM19.7285 12.4586C21.3256 12.7982 22.7058 13.7377 23.6236 15.1035C24.3246 16.1514 24.6426 17.2281 24.6426 18.5289C24.6353 20.6174 23.6525 22.4385 21.8892 23.6236C21.2172 24.0789 20.3211 24.4402 19.5406 24.5775C19.2588 24.6281 18.6951 24.6498 18.182 24.6281C17.1269 24.5848 16.2742 24.3318 15.3564 23.7898C14.6699 23.3852 13.7377 22.4891 13.3113 21.8242C12.9572 21.2822 12.6031 20.4078 12.4586 19.7285C12.3285 19.1215 12.3285 17.8785 12.4586 17.2715C12.9717 14.865 14.8289 12.9934 17.2353 12.4658C17.8135 12.3357 19.1431 12.3357 19.7285 12.4586Z" fill="#E9FBFF"/>
</g>
<path d="M-6.66669 -317.8C-13.3334 -316.067 -21.6 -311.267 -26.8 -306.067C-35.4667 -297.533 -37.6 -290.467 -41.6 -258.867C-43.4667 -243.133 -45.7334 -229.667 -46.4 -228.733C-47.0667 -227.8 -49.7334 -226.467 -52.4 -225.667C-55.0667 -224.733 -63.4667 -221.4 -71.0667 -218.067L-84.8 -211.933L-89.7334 -215.933C-112.8 -234.2 -130.267 -247.133 -135.333 -249.667C-143.467 -253.8 -156.533 -254.733 -166.8 -251.667C-174.4 -249.533 -175.733 -248.333 -205.6 -218.6C-235.333 -188.733 -236.533 -187.4 -238.667 -179.8C-241.733 -169.4 -240.8 -156.467 -236.667 -148.333C-234.933 -145 -226.533 -133.4 -218 -122.333C-196.8 -95.2667 -198.267 -98.3333 -202.933 -89C-205.2 -84.6 -208.667 -76.4667 -210.667 -71C-212.667 -65.5334 -215.067 -60.3333 -215.867 -59.5334C-216.667 -58.7334 -230.267 -56.4667 -246 -54.4667C-277.733 -50.4667 -284.533 -48.3333 -293.067 -39.8C-295.867 -37.1334 -299.6 -31.8 -301.733 -27.9333L-305.333 -21V21.6667V64.3333L-301.867 71.8C-299.867 75.9333 -296.133 81.5333 -293.333 84.3333C-284.533 93.1333 -277.333 95.4 -247.067 99.1333C-232.267 100.867 -218.8 102.867 -217.333 103.533C-215.733 104.2 -213.6 107.533 -212.133 111.8C-210.8 115.8 -207.2 124.2 -204.267 130.6C-200.667 138.733 -199.333 142.867 -200.267 143.933C-200.933 144.867 -208.8 155 -217.6 166.333C-226.4 177.667 -234.933 189.667 -236.667 193C-240.8 201.133 -241.733 214.067 -238.667 224.467C-236.533 232.067 -235.333 233.4 -205.6 263.267C-175.733 293 -174.4 294.2 -166.8 296.333C-156.533 299.4 -143.467 298.467 -135.333 294.333C-130.267 291.8 -112.8 278.867 -89.7334 260.6L-84.8 256.6L-71.0667 262.733C-63.4667 266.067 -55.0667 269.4 -52.4 270.333C-49.7334 271.133 -47.0667 272.467 -46.4 273.4C-45.7334 274.333 -43.4667 287.8 -41.6 303.533C-37.6 335.267 -35.4667 342.2 -26.6667 351C-23.8667 353.8 -18.2667 357.533 -14.1334 359.533L-6.66669 363H35.3333H77.3333L84.8 359.533C88.9333 357.533 94.5333 353.8 97.3333 351C106.267 342.067 108.4 335 112.267 303.4C114.133 287.8 116.4 274.333 117.2 273.533C118 272.733 123.2 270.333 128.667 268.333C134.133 266.333 142.267 262.867 146.667 260.6C156 255.933 152.933 254.467 180 275.667C191.067 284.2 202.667 292.6 206 294.333C214.133 298.467 227.067 299.4 237.467 296.333C245.067 294.2 246.4 293 276.267 263.267C306 233.4 307.2 232.067 309.333 224.467C312.4 214.067 311.467 201.133 307.333 193C304.933 188.333 292.4 171.4 270.933 144.067C270.133 142.867 271.6 138.067 275.733 128.733C279.067 121.133 282.4 112.733 283.333 110.067C284.133 107.4 285.467 104.733 286.4 104.067C287.333 103.4 300.8 101.133 316.533 99.2667C348.267 95.2667 355.2 93.1333 364 84.3333C366.8 81.5333 370.533 75.9333 372.533 71.8L376 64.3333V22.3333V-19.6667L372.533 -27.1334C370.533 -31.2667 366.8 -36.8667 364 -39.6667C355.2 -48.4667 348.133 -50.6 316.133 -54.8667C300.267 -56.8667 286.8 -59.1334 286.133 -59.8C285.467 -60.4667 283.333 -65.5334 281.333 -71C279.333 -76.4667 275.867 -84.6 273.6 -89C268.933 -98.3333 267.467 -95.2667 288.667 -122.333C297.2 -133.4 305.6 -145 307.333 -148.333C311.467 -156.467 312.4 -169.4 309.333 -179.8C307.2 -187.4 306 -188.733 276.267 -218.6C246.4 -248.333 245.067 -249.533 237.467 -251.667C227.067 -254.733 214.133 -253.8 206 -249.667C202.667 -247.933 191.067 -239.533 180 -231C152.933 -209.8 156 -211.267 146.667 -215.933C142.267 -218.2 134.133 -221.667 128.667 -223.667C123.2 -225.667 118 -228.067 117.2 -228.867C116.4 -229.667 114.133 -243.133 112.267 -258.867C108.267 -290.6 106.133 -297.4 97.3333 -306.333C94.5333 -309.133 88.9333 -312.867 84.8 -314.867L77.3333 -318.333L37.3333 -318.6C15.3333 -318.733 -4.40002 -318.333 -6.66669 -317.8ZM72.5333 -289.267C79.7333 -285.667 80.6667 -282.733 85.3333 -246.333C88.6667 -219.933 90.2666 -211.267 92.1333 -208.733C94 -206.333 99.3333 -203.8 110.8 -199.667C119.6 -196.6 133.333 -190.867 141.333 -187C154 -180.867 156.267 -180.2 159.867 -181.267C162.133 -181.933 176.267 -192.067 191.333 -203.8C228 -232.333 222.133 -232.867 256.267 -198.6C290.533 -164.467 290.133 -170.6 261.067 -133.133C249.2 -117.8 239.067 -103.4 238.533 -101.4C238 -98.3333 239.333 -94.3333 244.667 -83.2667C248.533 -75.5334 254 -62.6 256.933 -54.6C263.2 -37 263.867 -35.5334 267.6 -33.5334C269.2 -32.6 285.867 -29.9333 304.533 -27.5334C340.4 -23 343.333 -22.0667 346.933 -14.8667C349.333 -10.3333 349.333 55 346.933 59.5333C343.333 66.7333 340.4 67.6667 304.4 72.2C285.733 74.7333 269.2 77.4 267.6 78.2C263.867 80.2 263.067 81.6667 256.8 99.4C254 107.533 248.4 120.467 244.667 128.333C238.4 141 237.733 143 238.933 146.867C239.6 149.133 249.733 163.267 261.467 178.333C290 215 290.533 209.133 256.267 243.267C222.133 277.533 228.267 277.133 190.8 248.067C175.467 236.2 161.067 226.067 159.067 225.533C156 225 152 226.333 140.933 231.667C133.2 235.533 120.133 241 112 243.933C104 246.867 96 250.067 94.4 251.133C90.2666 253.8 89.2 258.733 84.8 294.2C80.6667 327.133 79.7333 330.333 72.5333 333.933C68 336.333 2.66666 336.333 -1.8667 333.933C-9.06668 330.2 -10 327.4 -14.5334 291.133C-18 264.333 -19.4667 256.067 -21.4667 253.4C-23.3334 251 -28.5334 248.467 -40 244.333C-48.9333 241.267 -62.5334 235.533 -70.4 231.8C-81.6 226.333 -85.4667 225 -88.5334 225.667C-90.6667 226.067 -104 235.533 -118.133 246.467C-132.4 257.533 -145.733 267.533 -147.733 268.6C-155.6 272.6 -158.133 270.867 -186 243C-219.733 209.133 -219.333 215.133 -190.4 177.8C-178.533 162.467 -168.4 148.2 -168 146.2C-167.333 143.4 -168.8 139 -174 128.333C-177.733 120.467 -183.333 107.4 -186.133 99.2667C-189.067 91 -192.4 83 -193.467 81.4C-196.133 77.2667 -201.067 76.2 -236.533 71.8C-269.467 67.6667 -272.667 66.7333 -276.267 59.5333C-278.667 55 -278.667 -10.3333 -276.267 -14.8667C-272.667 -22.0667 -269.467 -23 -236.533 -27.1334C-201.067 -31.5334 -196.133 -32.6 -193.467 -36.7334C-192.4 -38.3333 -189.2 -46.3333 -186.267 -54.3333C-183.333 -62.4667 -177.867 -75.5334 -174 -83.4C-167.733 -96.2 -167.067 -98.3333 -168.267 -102.067C-168.933 -104.467 -179.067 -118.6 -190.8 -133.667C-219.333 -170.333 -219.867 -164.467 -185.6 -198.6C-151.467 -232.867 -157.333 -232.333 -120.667 -203.8C-105.6 -192.067 -91.4667 -181.933 -89.2 -181.267C-85.4667 -180.067 -83.2 -180.733 -69.7334 -187.4C-61.4667 -191.4 -48.4 -196.867 -40.6667 -199.667C-32.9333 -202.333 -25.3334 -205.4 -23.7334 -206.333C-19.6 -209.133 -18.5334 -214.067 -14.1334 -249.533C-10 -282.467 -9.06668 -285.667 -1.8667 -289.267C0.399963 -290.467 10.9333 -291 35.3333 -291C59.7333 -291 70.2666 -290.467 72.5333 -289.267Z" fill="black"/>
<path d="M19.0666 -119C-30.1334 -112.867 -72.0001 -82.3334 -93.3334 -37.2667C-118.933 17 -106.933 81.9333 -63.6001 123.933C-20.8 165.267 42 176.2 94.6666 151.133C126.4 136.2 149.2 113.4 164 81.9333C198.533 8.86665 164.267 -77.9334 88.2666 -109.533C68.6666 -117.667 39.7333 -121.667 19.0666 -119ZM58 -89.1334C87.4666 -82.8667 112.933 -65.5334 129.867 -40.3334C142.8 -21 148.667 -1.13335 148.667 22.8667C148.533 61.4 130.4 95 97.8666 116.867C85.4666 125.267 68.9333 131.933 54.5333 134.467C49.3333 135.4 38.9333 135.8 29.4666 135.4C9.99995 134.6 -5.73339 129.933 -22.6667 119.933C-35.3334 112.467 -52.5334 95.9333 -60.4001 83.6666C-66.9334 73.6666 -73.4667 57.5333 -76.1334 45C-78.5334 33.8 -78.5334 10.8667 -76.1334 -0.333359C-66.6667 -44.7334 -32.4001 -79.2667 11.9999 -89C22.6666 -91.4 47.2 -91.4 58 -89.1334Z" fill="black"/>
</g>
<defs>
<clipPath id="clip0_45_491">
<rect width="37" height="37" fill="white"/>
</clipPath>
<clipPath id="clip1_45_491">
<rect width="37" height="37" fill="white"/>
</clipPath>
</defs>
</svg>
